<svg xmlns="http://www.w3.org/2000/svg" xmlns:xlink="http://www.w3.org/1999/xlink" width="500" zoomAndPan="magnify" viewBox="0 0 375 149.999998" height="200" preserveAspectRatio="xMidYMid meet" version="1.0"><defs><g/><clipPath id="23ae289736"><path d="M 162.503906 43.695312 L 226.625 43.695312 L 226.625 109.179688 L 162.503906 109.179688 Z M 162.503906 43.695312 " clip-rule="nonzero"/></clipPath></defs><rect x="-37.5" width="450" fill="#ffffff" y="-15" height="179.999997" fill-opacity="1"/><rect x="-37.5" width="450" fill="#ffffff" y="-15" height="179.999997" fill-opacity="1"/><g fill="#3b82f6" fill-opacity="1"><g transform="translate(7.251754, 97.247208)"><g><path d="M 7.6875 -5.140625 C 3.800781 -9.378906 1.859375 -14.578125 1.859375 -20.734375 C 1.859375 -26.898438 3.800781 -32.113281 7.6875 -36.375 C 11.582031 -40.644531 16.53125 -42.78125 22.53125 -42.78125 C 28.039062 -42.78125 32.578125 -41.050781 36.140625 -37.59375 L 36.140625 -69.6875 L 50.484375 -69.6875 L 50.484375 0 L 36.296875 0 L 36.296875 -4.703125 L 36.140625 -4.703125 C 32.578125 -0.753906 28.039062 1.21875 22.53125 1.21875 C 16.53125 1.21875 11.582031 -0.898438 7.6875 -5.140625 Z M 19.890625 -27.78125 C 18.023438 -25.945312 17.09375 -23.597656 17.09375 -20.734375 C 17.09375 -17.878906 17.984375 -15.546875 19.765625 -13.734375 C 21.554688 -11.921875 23.910156 -11.015625 26.828125 -11.015625 C 29.628906 -11.015625 31.9375 -11.929688 33.75 -13.765625 C 35.5625 -15.609375 36.46875 -17.9375 36.46875 -20.75 C 36.46875 -23.601562 35.535156 -25.945312 33.671875 -27.78125 C 31.804688 -29.625 29.523438 -30.546875 26.828125 -30.546875 C 24.066406 -30.546875 21.753906 -29.625 19.890625 -27.78125 Z M 19.890625 -27.78125 "/></g></g></g><g fill="#3b82f6" fill-opacity="1"><g transform="translate(62.590767, 97.247208)"><g><path d="M 6.234375 -64.734375 C 7.910156 -66.410156 9.910156 -67.25 12.234375 -67.25 C 14.554688 -67.25 16.554688 -66.410156 18.234375 -64.734375 C 19.910156 -63.066406 20.75 -61.070312 20.75 -58.75 C 20.75 -56.425781 19.910156 -54.425781 18.234375 -52.75 C 16.554688 -51.070312 14.554688 -50.234375 12.234375 -50.234375 C 9.910156 -50.234375 7.910156 -51.070312 6.234375 -52.75 C 4.566406 -54.425781 3.734375 -56.425781 3.734375 -58.75 C 3.734375 -61.070312 4.566406 -63.066406 6.234375 -64.734375 Z M 4.859375 -41.5625 L 4.859375 0 L 19.203125 0 L 19.203125 -41.5625 Z M 4.859375 -41.5625 "/></g></g></g><g fill="#3b82f6" fill-opacity="1"><g transform="translate(87.059848, 97.247208)"><g><path d="M 3 10.203125 L 14.75 4.453125 C 16.90625 8.023438 20.660156 9.8125 26.015625 9.8125 C 28.492188 9.8125 30.800781 9.015625 32.9375 7.421875 C 35.070312 5.828125 36.140625 3.378906 36.140625 0.078125 L 36.140625 -3 C 33.597656 -0.1875 29.0625 1.21875 22.53125 1.21875 C 16.53125 1.21875 11.582031 -0.898438 7.6875 -5.140625 C 3.800781 -9.378906 1.859375 -14.578125 1.859375 -20.734375 C 1.859375 -26.898438 3.800781 -32.113281 7.6875 -36.375 C 11.582031 -40.644531 16.53125 -42.78125 22.53125 -42.78125 C 27.875 -42.78125 32.328125 -41.132812 35.890625 -37.84375 L 36.140625 -37.84375 L 36.140625 -41.5625 L 50.484375 -41.5625 L 50.484375 1.140625 C 50.484375 7.890625 48.238281 13.097656 43.75 16.765625 C 39.269531 20.441406 33.359375 22.28125 26.015625 22.28125 C 14.128906 22.28125 6.457031 18.253906 3 10.203125 Z M 19.890625 -27.78125 C 18.023438 -25.945312 17.09375 -23.597656 17.09375 -20.734375 C 17.09375 -17.878906 17.984375 -15.546875 19.765625 -13.734375 C 21.554688 -11.921875 23.910156 -11.015625 26.828125 -11.015625 C 29.628906 -11.015625 31.9375 -11.929688 33.75 -13.765625 C 35.5625 -15.609375 36.46875 -17.9375 36.46875 -20.75 C 36.46875 -23.601562 35.535156 -25.945312 33.671875 -27.78125 C 31.804688 -29.625 29.523438 -30.546875 26.828125 -30.546875 C 24.066406 -30.546875 21.753906 -29.625 19.890625 -27.78125 Z M 19.890625 -27.78125 "/></g></g></g><g fill="#3b82f6" fill-opacity="1"><g transform="translate(142.398861, 97.247208)"><g><path d="M 6.234375 -64.734375 C 7.910156 -66.410156 9.910156 -67.25 12.234375 -67.25 C 14.554688 -67.25 16.554688 -66.410156 18.234375 -64.734375 C 19.910156 -63.066406 20.75 -61.070312 20.75 -58.75 C 20.75 -56.425781 19.910156 -54.425781 18.234375 -52.75 C 16.554688 -51.070312 14.554688 -50.234375 12.234375 -50.234375 C 9.910156 -50.234375 7.910156 -51.070312 6.234375 -52.75 C 4.566406 -54.425781 3.734375 -56.425781 3.734375 -58.75 C 3.734375 -61.070312 4.566406 -63.066406 6.234375 -64.734375 Z M 4.859375 -41.5625 L 4.859375 0 L 19.203125 0 L 19.203125 -41.5625 Z M 4.859375 -41.5625 "/></g></g></g><g fill="#e14767" fill-opacity="1"><g transform="translate(166.872842, 97.247208)"><g><path d="M 7.6875 -5.140625 C 3.800781 -9.378906 1.859375 -14.578125 1.859375 -20.734375 C 1.859375 -26.898438 3.800781 -32.113281 7.6875 -36.375 C 11.582031 -40.644531 16.53125 -42.78125 22.53125 -42.78125 C 28.039062 -42.78125 32.578125 -41.050781 36.140625 -37.59375 L 36.140625 -41.5625 L 50.484375 -41.5625 L 50.484375 0 L 36.296875 0 L 36.296875 -4.703125 L 36.140625 -4.703125 C 32.578125 -0.753906 28.039062 1.21875 22.53125 1.21875 C 16.53125 1.21875 11.582031 -0.898438 7.6875 -5.140625 Z M 19.890625 -27.78125 C 18.023438 -25.945312 17.09375 -23.597656 17.09375 -20.734375 C 17.09375 -17.878906 17.984375 -15.546875 19.765625 -13.734375 C 21.554688 -11.921875 23.910156 -11.015625 26.828125 -11.015625 C 29.628906 -11.015625 31.9375 -11.929688 33.75 -13.765625 C 35.5625 -15.609375 36.46875 -17.9375 36.46875 -20.75 C 36.46875 -23.601562 35.535156 -25.945312 33.671875 -27.78125 C 31.804688 -29.625 29.523438 -30.546875 26.828125 -30.546875 C 24.066406 -30.546875 21.753906 -29.625 19.890625 -27.78125 Z M 19.890625 -27.78125 "/></g></g></g><g fill="#e14767" fill-opacity="1"><g transform="translate(222.211855, 97.247208)"><g><path d="M 6.234375 -64.734375 C 7.910156 -66.410156 9.910156 -67.25 12.234375 -67.25 C 14.554688 -67.25 16.554688 -66.410156 18.234375 -64.734375 C 19.910156 -63.066406 20.75 -61.070312 20.75 -58.75 C 20.75 -56.425781 19.910156 -54.425781 18.234375 -52.75 C 16.554688 -51.070312 14.554688 -50.234375 12.234375 -50.234375 C 9.910156 -50.234375 7.910156 -51.070312 6.234375 -52.75 C 4.566406 -54.425781 3.734375 -56.425781 3.734375 -58.75 C 3.734375 -61.070312 4.566406 -63.066406 6.234375 -64.734375 Z M 4.859375 -41.5625 L 4.859375 0 L 19.203125 0 L 19.203125 -41.5625 Z M 4.859375 -41.5625 "/></g></g></g><g fill="#3b82f6" fill-opacity="1"><g transform="translate(246.68924, 97.247208)"><g><path d="M 4.859375 0 L 4.859375 -41.5625 L 19.203125 -41.5625 L 19.203125 -35.578125 L 19.359375 -35.578125 C 19.472656 -35.785156 19.648438 -36.050781 19.890625 -36.375 C 20.140625 -36.707031 20.664062 -37.273438 21.46875 -38.078125 C 22.28125 -38.890625 23.144531 -39.617188 24.0625 -40.265625 C 24.976562 -40.921875 26.164062 -41.503906 27.625 -42.015625 C 29.082031 -42.523438 30.570312 -42.78125 32.09375 -42.78125 C 33.65625 -42.78125 35.191406 -42.5625 36.703125 -42.125 C 38.210938 -41.695312 39.320312 -41.269531 40.03125 -40.84375 L 41.15625 -40.1875 L 35.171875 -28.03125 C 33.390625 -29.550781 30.90625 -30.3125 27.71875 -30.3125 C 25.988281 -30.3125 24.5 -29.929688 23.25 -29.171875 C 22.007812 -28.410156 21.132812 -27.488281 20.625 -26.40625 C 20.113281 -25.332031 19.75 -24.414062 19.53125 -23.65625 C 19.3125 -22.90625 19.203125 -22.3125 19.203125 -21.875 L 19.203125 0 Z M 4.859375 0 "/></g></g></g><g fill="#3b82f6" fill-opacity="1"><g transform="translate(287.03892, 97.247208)"><g><path d="M 7.296875 -41.5625 L 7.296875 -57.046875 L 21.640625 -57.046875 L 21.640625 -41.5625 L 30.390625 -41.5625 L 30.390625 -30.625 L 21.640625 -30.625 L 21.640625 -17.421875 C 21.640625 -13.585938 22.71875 -11.671875 24.875 -11.671875 C 25.414062 -11.671875 25.984375 -11.773438 26.578125 -11.984375 C 27.171875 -12.203125 27.628906 -12.421875 27.953125 -12.640625 L 28.4375 -12.96875 L 32 -1.375 C 28.925781 0.351562 25.414062 1.21875 21.46875 1.21875 C 18.769531 1.21875 16.445312 0.742188 14.5 -0.203125 C 12.5625 -1.148438 11.09375 -2.421875 10.09375 -4.015625 C 9.09375 -5.609375 8.375 -7.28125 7.9375 -9.03125 C 7.507812 -10.789062 7.296875 -12.671875 7.296875 -14.671875 L 7.296875 -30.625 L 1.296875 -30.625 L 1.296875 -41.5625 Z M 7.296875 -41.5625 "/></g></g></g><g fill="#3b82f6" fill-opacity="1"><g transform="translate(319.043179, 97.247208)"><g><path d="M 13.78125 -47 L 1.859375 -52.75 C 1.859375 -52.96875 2.019531 -53.546875 2.34375 -54.484375 C 2.675781 -55.429688 3.328125 -56.703125 4.296875 -58.296875 C 5.265625 -59.890625 6.488281 -61.390625 7.96875 -62.796875 C 9.457031 -64.203125 11.550781 -65.429688 14.25 -66.484375 C 16.957031 -67.535156 20.015625 -68.0625 23.421875 -68.0625 C 29.679688 -68.0625 35.082031 -66.222656 39.625 -62.546875 C 44.164062 -58.878906 46.4375 -54.265625 46.4375 -48.703125 C 46.4375 -41.835938 41.867188 -36.460938 32.734375 -32.578125 C 31.492188 -32.035156 30.710938 -31.289062 30.390625 -30.34375 C 30.066406 -29.394531 29.90625 -28.085938 29.90625 -26.421875 L 29.90625 -21.875 L 16.53125 -21.875 L 16.53125 -30.703125 C 16.53125 -32.171875 16.582031 -33.320312 16.6875 -34.15625 C 16.800781 -34.988281 17.15625 -35.90625 17.75 -36.90625 C 18.34375 -37.90625 19.207031 -38.785156 20.34375 -39.546875 C 21.207031 -40.085938 22.367188 -40.722656 23.828125 -41.453125 C 25.285156 -42.179688 26.363281 -42.757812 27.0625 -43.1875 C 27.769531 -43.625 28.421875 -44.3125 29.015625 -45.25 C 29.609375 -46.195312 29.90625 -47.347656 29.90625 -48.703125 C 29.90625 -50.640625 29.269531 -52.226562 28 -53.46875 C 26.726562 -54.71875 25.175781 -55.34375 23.34375 -55.34375 C 20.6875 -55.34375 18.5625 -54.488281 16.96875 -52.78125 C 15.375 -51.082031 14.3125 -49.15625 13.78125 -47 Z M 23.171875 -17.34375 C 25.765625 -17.34375 27.96875 -16.4375 29.78125 -14.625 C 31.59375 -12.8125 32.5 -10.609375 32.5 -8.015625 C 32.5 -5.484375 31.59375 -3.3125 29.78125 -1.5 C 27.96875 0.3125 25.765625 1.21875 23.171875 1.21875 C 20.628906 1.21875 18.453125 0.3125 16.640625 -1.5 C 14.835938 -3.3125 13.9375 -5.484375 13.9375 -8.015625 C 13.9375 -10.609375 14.835938 -12.8125 16.640625 -14.625 C 18.453125 -16.4375 20.628906 -17.34375 23.171875 -17.34375 Z M 23.171875 -17.34375 "/></g></g></g><g clip-path="url(#23ae289736)"><path fill="#ffffff" d="M 226.382812 75.988281 L 216.960938 75.988281 C 200.835938 72.5 197.246094 68.898438 193.757812 52.75 L 193.757812 43.695312 L 192.566406 43.695312 L 192.566406 52.84375 C 189.082031 68.914062 185.480469 72.507812 169.382812 75.988281 L 162.511719 75.988281 L 162.511719 77.179688 L 169.382812 77.179688 C 185.480469 80.664062 189.082031 84.253906 192.566406 100.328125 L 192.566406 109.304688 L 193.757812 109.304688 L 193.757812 100.421875 C 197.246094 84.269531 200.835938 80.671875 216.960938 77.179688 L 226.382812 77.179688 Z M 226.382812 75.988281 " fill-opacity="1" fill-rule="nonzero"/></g></svg>